<svg width="20" height="20" viewBox="0 0 20 20" fill="none" xmlns="http://www.w3.org/2000/svg">
<path d="M1.68945 9.37492H5.84255C5.90733 7.25457 6.29962 5.32304 6.92016 3.86294C7.26017 3.06293 7.68104 2.37532 8.18025 1.8785C8.18574 1.87304 8.19123 1.8676 8.19674 1.86218C4.65829 2.64262 1.96401 5.67206 1.68945 9.37492Z" fill="white"/>
<path d="M1.68945 10.6249C1.96401 14.3278 4.65829 17.3573 8.19674 18.1377C8.19123 18.1323 8.18574 18.1268 8.18025 18.1214C7.68104 17.6246 7.26017 16.937 6.92016 16.137C6.29962 14.6768 5.90733 12.7453 5.84255 10.6249H1.68945Z" fill="white"/>
<path d="M11.8027 18.1377C15.3411 17.3572 18.0354 14.3278 18.3099 10.6249H14.1568C14.0921 12.7453 13.6998 14.6768 13.0793 16.137C12.7393 16.937 12.3184 17.6246 11.8192 18.1214C11.8137 18.1268 11.8082 18.1323 11.8027 18.1377Z" fill="white"/>
<path d="M18.3099 9.37492C18.0354 5.67207 15.3411 2.64262 11.8027 1.86218C11.8082 1.8676 11.8137 1.87304 11.8192 1.8785C12.3184 2.37532 12.7393 3.06293 13.0793 3.86294C13.6998 5.32304 14.0921 7.25457 14.1568 9.37492H18.3099Z" fill="white"/>
<path d="M10.9374 2.7645C10.5918 2.42048 10.2755 2.29163 9.99967 2.29163C9.72392 2.29163 9.40767 2.42048 9.062 2.7645C8.71375 3.11105 8.3715 3.64383 8.07058 4.35187C7.5263 5.63254 7.15771 7.3915 7.09317 9.37492H12.9063C12.8417 7.3915 12.4731 5.63254 11.9288 4.35187C11.6279 3.64383 11.2856 3.11105 10.9374 2.7645Z" fill="white"/>
<path d="M11.9288 15.6481C12.4731 14.3674 12.8417 12.6084 12.9063 10.6249H7.09317C7.15771 12.6084 7.52629 14.3674 8.07058 15.6481C8.3715 16.3561 8.71375 16.8888 9.062 17.2354C9.40767 17.5794 9.72392 17.7082 9.99967 17.7082C10.2755 17.7082 10.5918 17.5794 10.9374 17.2354C11.2856 16.8888 11.6279 16.3561 11.9288 15.6481Z" fill="white"/>
</svg>
