<svg width="24" height="24" viewBox="0 0 24 24" fill="none" xmlns="http://www.w3.org/2000/svg">
<path d="M2.02734 11.2501H7.01106C7.08879 8.70573 7.55954 6.38789 8.30419 4.63577C8.7122 3.67576 9.21725 2.85063 9.81631 2.25444C9.82289 2.24789 9.82947 2.24136 9.83609 2.23486C5.58995 3.17139 2.35681 6.80671 2.02734 11.2501Z" fill="white"/>
<path d="M2.02734 12.75C2.35681 17.1935 5.58994 20.8289 9.83609 21.7654C9.82947 21.7589 9.82289 21.7523 9.81631 21.7458C9.21725 21.1496 8.7122 20.3245 8.30419 19.3645C7.55954 17.6123 7.08879 15.2945 7.01106 12.75H2.02734Z" fill="white"/>
<path d="M14.1631 21.7654C18.4092 20.8288 21.6424 17.1935 21.9718 12.75H16.9881C16.9104 15.2945 16.4396 17.6123 15.695 19.3645C15.287 20.3245 14.782 21.1496 14.1829 21.7458C14.1763 21.7523 14.1697 21.7589 14.1631 21.7654Z" fill="white"/>
<path d="M21.9718 11.2501C21.6424 6.80672 18.4092 3.17139 14.1631 2.23486C14.1697 2.24136 14.1763 2.24789 14.1829 2.25444C14.782 2.85063 15.287 3.67576 15.695 4.63577C16.4396 6.38789 16.9104 8.70573 16.9881 11.2501H21.9718Z" fill="white"/>
<path d="M13.1248 3.31745C12.71 2.90462 12.3305 2.75 11.9995 2.75C11.6686 2.75 11.2891 2.90462 10.8743 3.31745C10.4564 3.73331 10.0457 4.37265 9.68461 5.22229C9.03147 6.7591 8.58917 8.86985 8.51172 11.25H15.4874C15.4099 8.86985 14.9676 6.7591 14.3145 5.22229C13.9534 4.37265 13.5426 3.73331 13.1248 3.31745Z" fill="white"/>
<path d="M14.3145 18.7778C14.9676 17.241 15.4099 15.1302 15.4874 12.75H8.51172C8.58917 15.1302 9.03146 17.241 9.68461 18.7778C10.0457 19.6274 10.4564 20.2667 10.8743 20.6826C11.2891 21.0954 11.6686 21.25 11.9995 21.25C12.3305 21.25 12.71 21.0954 13.1248 20.6826C13.5426 20.2667 13.9534 19.6274 14.3145 18.7778Z" fill="white"/>
</svg>
